<svg width="154" height="802" viewBox="0 0 154 802" fill="none" xmlns="http://www.w3.org/2000/svg">
<line x1="12" y1="671.5" x2="136" y2="671.5" stroke="#24B0BD"/>
<line x1="7" y1="794.5" x2="131" y2="794.5" stroke="#24B0BD"/>
<line x1="17" y1="6.5" x2="154" y2="6.5" stroke="#CFE7E9"/>
<line x1="13.5" y1="5" x2="13.5" y2="795" stroke="url(#paint0_linear_1_2)" stroke-width="3"/>
<circle cx="14" cy="7" r="7" fill="#CEE7E9"/>
<line x1="17" y1="132.5" x2="151" y2="132.5" stroke="#AEDCE1"/>
<circle cx="14" cy="133" r="7" fill="#AEDCE1"/>
<line x1="17" y1="258.5" x2="146" y2="258.5" stroke="#8CD1D8"/>
<circle cx="14" cy="259" r="7" fill="#8CD1D8"/>
<line x1="17" y1="385.5" x2="142" y2="385.5" stroke="#69C6CF"/>
<circle cx="14" cy="385" r="7" fill="#69C6CF"/>
<line x1="12" y1="547.5" x2="136" y2="547.5" stroke="#46BBC6"/>
<circle cx="14" cy="548" r="7" fill="#24B0BD"/>
<circle cx="14" cy="795" r="7" fill="#0FA9B8"/>
<circle cx="13" cy="672" r="7" fill="#24B0BD"/>
<circle cx="14" cy="66" r="9" fill="white"/>
<path fill-rule="evenodd" clip-rule="evenodd" d="M14 54C6.8203 54 1 59.8203 0.999999 67C0.999999 74.1797 6.8203 80 14 80C21.1797 80 27 74.1797 27 67C27 59.8203 21.1797 54 14 54ZM13.6366 72.7733C13.7863 73.0727 14.2136 73.0727 14.3634 72.7733L19.955 61.5901C20.1296 61.2409 19.7591 60.8705 19.4099 61.045L14.1817 63.6592C14.0673 63.7163 13.9327 63.7164 13.8183 63.6592L8.59009 61.045C8.24089 60.8704 7.87045 61.2409 8.04505 61.5901L13.6366 72.7733Z" fill="url(#paint1_linear_1_2)"/>
<circle cx="14" cy="195" r="9" fill="white"/>
<path fill-rule="evenodd" clip-rule="evenodd" d="M14 183C6.8203 183 1 188.82 0.999999 196C0.999999 203.18 6.8203 209 14 209C21.1797 209 27 203.18 27 196C27 188.82 21.1797 183 14 183ZM13.6366 201.773C13.7863 202.073 14.2136 202.073 14.3634 201.773L19.955 190.59C20.1296 190.241 19.7591 189.87 19.4099 190.045L14.1817 192.659C14.0673 192.716 13.9327 192.716 13.8183 192.659L8.59009 190.045C8.24089 189.87 7.87045 190.241 8.04505 190.59L13.6366 201.773Z" fill="#96D5DB"/>
<circle cx="14" cy="321" r="9" fill="white"/>
<path fill-rule="evenodd" clip-rule="evenodd" d="M14 309C6.8203 309 1 314.82 0.999999 322C0.999999 329.18 6.8203 335 14 335C21.1797 335 27 329.18 27 322C27 314.82 21.1797 309 14 309ZM13.6366 327.773C13.7863 328.073 14.2136 328.073 14.3634 327.773L19.955 316.59C20.1296 316.241 19.7591 315.87 19.4099 316.045L14.1817 318.659C14.0673 318.716 13.9327 318.716 13.8183 318.659L8.59009 316.045C8.24089 315.87 7.87045 316.241 8.04505 316.59L13.6366 327.773Z" fill="#7CCCD4"/>
<circle cx="14" cy="609" r="9" fill="white"/>
<path fill-rule="evenodd" clip-rule="evenodd" d="M14 597C6.8203 597 1 602.82 0.999999 610C0.999999 617.18 6.8203 623 14 623C21.1797 623 27 617.18 27 610C27 602.82 21.1797 597 14 597ZM13.6366 615.773C13.7863 616.073 14.2136 616.073 14.3634 615.773L19.955 604.59C20.1296 604.241 19.7591 603.87 19.4099 604.045L14.1817 606.659C14.0673 606.716 13.9327 606.716 13.8183 606.659L8.59009 604.045C8.24089 603.87 7.87045 604.241 8.04505 604.59L13.6366 615.773Z" fill="#2FB3C0"/>
<circle cx="13" cy="733" r="9" fill="white"/>
<path fill-rule="evenodd" clip-rule="evenodd" d="M13 721C5.8203 721 -1.43183e-07 726.82 -7.70853e-07 734C-1.39852e-06 741.18 5.8203 747 13 747C20.1797 747 26 741.18 26 734C26 726.82 20.1797 721 13 721ZM12.6366 739.773C12.7863 740.073 13.2136 740.073 13.3634 739.773L18.955 728.59C19.1296 728.241 18.7591 727.87 18.4099 728.045L13.1817 730.659C13.0673 730.716 12.9327 730.716 12.8183 730.659L7.59009 728.045C7.24089 727.87 6.87045 728.241 7.04505 728.59L12.6366 739.773Z" fill="#2FB3C0"/>
<circle cx="13" cy="463" r="9" fill="white"/>
<path fill-rule="evenodd" clip-rule="evenodd" d="M13 451C5.8203 451 -1.43183e-07 456.82 -7.70853e-07 464C-1.39852e-06 471.18 5.8203 477 13 477C20.1797 477 26 471.18 26 464C26 456.82 20.1797 451 13 451ZM12.6366 469.773C12.7863 470.073 13.2136 470.073 13.3634 469.773L18.955 458.59C19.1296 458.241 18.7591 457.87 18.4099 458.045L13.1817 460.659C13.0673 460.716 12.9327 460.716 12.8183 460.659L7.59009 458.045C7.24089 457.87 6.87045 458.241 7.04505 458.59L12.6366 469.773Z" fill="#4FBEC8"/>
<defs>
<linearGradient id="paint0_linear_1_2" x1="11.5" y1="5" x2="11.5" y2="795" gradientUnits="userSpaceOnUse">
<stop stop-color="#CFE7E9"/>
<stop offset="1" stop-color="#03A5B5"/>
</linearGradient>
<linearGradient id="paint1_linear_1_2" x1="14" y1="54" x2="14" y2="80" gradientUnits="userSpaceOnUse">
<stop stop-color="#C2E3E6"/>
<stop offset="1" stop-color="#BAE0E4"/>
</linearGradient>
</defs>
</svg>
